<svg xmlns="http://www.w3.org/2000/svg" viewBox="0 0 1000 300">
  <!-- First Frame (X-split) -->
  <g transform="translate(0, 0)">
    <rect width="300" height="300" fill="#ffffff"/>
    <!-- Axes -->
    <path d="M 50 250 L 250 250" stroke="#000" stroke-width="2"/>
    <path d="M 50 250 L 50 50" stroke="#000" stroke-width="2"/>
    
    <!-- Grid -->
    <g stroke="#e0e0e0" stroke-width="1">
      <path d="M 100 250 L 100 50"/>
      <path d="M 150 250 L 150 50"/>
      <path d="M 200 250 L 200 50"/>
      <path d="M 50 200 L 250 200"/>
      <path d="M 50 150 L 250 150"/>
      <path d="M 50 100 L 250 100"/>
    </g>
    
    <!-- First split (X-axis) -->
    <path d="M 150 50 L 150 250" stroke="#FF4444" stroke-width="2" stroke-dasharray="5,5"/>
    <!-- Highlight left region -->
    <rect x="50" y="50" width="100" height="200" fill="#FF4444" fill-opacity="0.1"/>
    
    <!-- Points -->
    <g fill="#2196F3">
      <circle cx="70" cy="200" r="5" fill="#FF0000"/> <!-- Query Point A -->
      <circle cx="100" cy="70" r="5"/>  <!-- B -->
      <circle cx="180" cy="80" r="5"/>  <!-- C -->
      <circle cx="200" cy="150" r="5"/> <!-- D -->
    </g>
    
    <!-- Step Label -->
    <text x="150" y="30" text-anchor="middle" font-size="16">Step 1: X軸で分割し、左側の領域へ</text>
  </g>

  <!-- Second Frame (Y-split) -->
  <g transform="translate(350, 0)">
    <rect width="300" height="300" fill="#ffffff"/>
    <!-- Axes -->
    <path d="M 50 250 L 250 250" stroke="#000" stroke-width="2"/>
    <path d="M 50 250 L 50 50" stroke="#000" stroke-width="2"/>
    
    <!-- Grid -->
    <g stroke="#e0e0e0" stroke-width="1">
      <path d="M 100 250 L 100 50"/>
      <path d="M 150 250 L 150 50"/>
      <path d="M 200 250 L 200 50"/>
      <path d="M 50 200 L 250 200"/>
      <path d="M 50 150 L 250 150"/>
      <path d="M 50 100 L 250 100"/>
    </g>
    
    <!-- First split line (X) (faded) -->
    <path d="M 150 50 L 150 250" stroke="#FFB0B0" stroke-width="2" stroke-dasharray="5,5"/>
    <!-- Second split (Y-axis) -->
    <!-- Suppose the Y-split is at y=140 (between A(200) and B(70) ) -->
    <path d="M 50 140 L 150 140" stroke="#4444FF" stroke-width="2" stroke-dasharray="5,5"/>
    <!-- Highlight upper region (above y=140 on left side) -->
    <rect x="50" y="50" width="100" height="90" fill="#4444FF" fill-opacity="0.1"/>
    
    <!-- Points -->
    <g fill="#2196F3">
      <circle cx="70" cy="200" r="5" fill="#FF0000"/> <!-- Query A -->
      <circle cx="100" cy="70" r="5"/>                <!-- B -->
      <circle cx="180" cy="80" r="5"/>                <!-- C -->
      <circle cx="200" cy="150" r="5"/>               <!-- D -->
    </g>
    
    <!-- Step Label -->
    <text x="150" y="30" text-anchor="middle" font-size="16">Step 2: Y軸で分割し、上側へさらに絞る</text>
  </g>

  <!-- Third Frame (X-split again) -->
  <g transform="translate(700, 0)">
    <rect width="300" height="300" fill="#ffffff"/>
    <!-- Axes -->
    <path d="M 50 250 L 250 250" stroke="#000" stroke-width="2"/>
    <path d="M 50 250 L 50 50" stroke="#000" stroke-width="2"/>
    
    <!-- Grid -->
    <g stroke="#e0e0e0" stroke-width="1">
      <path d="M 100 250 L 100 50"/>
      <path d="M 150 250 L 150 50"/>
      <path d="M 200 250 L 200 50"/>
      <path d="M 50 200 L 250 200"/>
      <path d="M 50 150 L 250 150"/>
      <path d="M 50 100 L 250 100"/>
    </g>
    
    <!-- Previous lines (faded) -->
    <path d="M 150 50 L 150 250" stroke="#FFB0B0" stroke-width="2" stroke-dasharray="5,5"/>
    <path d="M 50 140 L 150 140" stroke="#B0B0FF" stroke-width="2" stroke-dasharray="5,5"/>
    
    <!-- Third split (X-axis again) -->
    <!-- Since A is at x=70, we choose x=90 to isolate it further -->
    <path d="M 90 50 L 90 140" stroke="#FF4444" stroke-width="2" stroke-dasharray="5,5"/>
    <!-- Highlight even narrower region -->
    <rect x="50" y="50" width="40" height="90" fill="#FF4444" fill-opacity="0.1"/>

    <!-- Points -->
    <g fill="#2196F3">
      <circle cx="70" cy="200" r="5" fill="#FF0000"/> <!-- A -->
      <circle cx="100" cy="70" r="5"/>                <!-- B -->
      <circle cx="180" cy="80" r="5"/>                <!-- C -->
      <circle cx="200" cy="150" r="5"/>               <!-- D -->
    </g>
    
    <!-- Step Label -->
    <text x="150" y="30" text-anchor="middle" font-size="16">Step 3: 再びX軸で分割し、A付近の領域へ特定</text>
  </g>
</svg>
