<svg xmlns="http://www.w3.org/2000/svg" viewBox="0 0 500 500">
  <!-- Background -->
  <rect width="500" height="500" fill="#e5e5e5" fill-opacity="0.1"/>
  
  <!-- Grid Lines (subtle) -->
  <g stroke="#cccccc" stroke-width="0.5" opacity="0.3">
    <line x1="0" y1="250" x2="500" y2="250"/>
    <line x1="250" y1="0" x2="250" y2="500"/>
  </g>

  <!-- KD-tree Partitions -->
  <g>
    <!-- Vertical split (level 1) -->
    <line x1="250" y1="50" x2="250" y2="450" stroke="#e53498" stroke-width="2"/>
    
    <!-- Horizontal splits (level 2) -->
    <line x1="50" y1="200" x2="240" y2="200" stroke="#6f4dca" stroke-width="2"/>
    <line x1="260" y1="300" x2="450" y2="300" stroke="#6f4dca" stroke-width="2"/>
    
    <!-- Vertical splits (level 3) -->
    <line x1="150" y1="50" x2="150" y2="190" stroke="#1c1235" stroke-width="2"/>
    <line x1="350" y1="310" x2="350" y2="450" stroke="#1c1235" stroke-width="2"/>
  </g>

  <!-- Points -->
  <g>
    <!-- Left top quadrants -->
    <circle cx="100" cy="100" r="6" fill="#e53498"/>
    <circle cx="200" cy="150" r="6" fill="#e53498"/>
    <circle cx="120" cy="150" r="6" fill="#e53498"/>
    
    <!-- Left bottom quadrants -->
    <circle cx="80" cy="300" r="6" fill="#6f4dca"/>
    <circle cx="180" cy="350" r="6" fill="#6f4dca"/>
    <circle cx="200" cy="250" r="6" fill="#6f4dca"/>
    
    <!-- Right top quadrants -->
    <circle cx="300" cy="150" r="6" fill="#1c1235"/>
    <circle cx="400" cy="200" r="6" fill="#1c1235"/>
    <circle cx="350" cy="100" r="6" fill="#1c1235"/>
    
    <!-- Right bottom quadrants -->
    <circle cx="300" cy="400" r="6" fill="#4a3487"/>
    <circle cx="400" cy="350" r="6" fill="#4a3487"/>
    <circle cx="380" cy="420" r="6" fill="#4a3487"/>
  </g>

  <!-- Coordinates Labels -->
  <g font-family="monospace" font-size="12" fill="#666">
    <!-- Axis -->
    <text x="470" y="260">(x)</text>
    <text x="240" y="30">(y)</text>
  </g>

  <!-- Split Level Labels -->
  <g font-family="sans-serif" font-size="10" fill="#666">
    <text x="260" y="70" fill="#e53498">Level 1: x軸で分割</text>
    <text x="360" y="320" fill="#6f4dca">Level 2: y軸で分割</text>
    <text x="160" y="70" fill="#1c1235">Level 3: x軸で分割</text>
  </g>
</svg>